<?xml version="1.0" standalone="no"?>
<!DOCTYPE svg PUBLIC "-//W3C//DTD SVG 20010904//EN"
 "http://www.w3.org/TR/2001/REC-SVG-20010904/DTD/svg10.dtd">
<svg version="1.0" xmlns="http://www.w3.org/2000/svg"
 width="700.000000pt" height="700.000000pt" viewBox="0 0 700.000000 700.000000"
 preserveAspectRatio="xMidYMid meet">
<metadata>
Created by potrace 1.11, written by Peter Selinger 2001-2013
</metadata>
<g transform="translate(0.000000,700.000000) scale(0.100000,-0.100000)"
fill="#000000" stroke="none">
<path d="M630 6985 c-265 -54 -476 -230 -575 -480 -57 -144 -54 15 -54 -3020
-1 -3032 -4 -2856 52 -2995 97 -239 315 -422 566 -476 99 -21 5643 -21 5753 0
306 59 551 302 612 611 15 72 16 346 14 2910 -3 2688 -4 2833 -21 2890 -80
266 -285 472 -552 552 -57 17 -196 18 -2895 19 -2310 2 -2847 0 -2900 -11z
m1739 -353 c92 -68 93 -197 1 -259 -46 -32 -124 -32 -171 0 -106 70 -83 239
37 277 39 12 104 3 133 -18z m4179 -37 c103 -44 149 -159 103 -261 -36 -79
-136 -127 -220 -104 -46 12 -105 59 -125 99 -80 158 80 333 242 266z m-1061
-336 c63 -24 100 -91 87 -159 -10 -46 -64 -97 -113 -105 -112 -19 -199 107
-141 203 37 61 103 85 167 61z m-1099 -68 c109 -56 162 -177 128 -292 -31
-108 -126 -179 -240 -179 -76 0 -132 26 -186 87 -146 166 -12 429 208 408 30
-3 70 -14 90 -24z m1787 -176 c100 -58 101 -196 2 -269 -20 -15 -43 -20 -82
-20 -90 0 -155 65 -155 157 0 125 127 196 235 132z m-5136 -70 c60 -51 63
-141 6 -195 -33 -31 -114 -40 -150 -16 -34 22 -65 74 -65 109 0 104 130 168
209 102z m1082 -268 c55 -37 79 -81 79 -147 0 -102 -68 -170 -170 -170 -102 0
-170 68 -170 170 0 102 68 170 170 170 43 0 65 -6 91 -23z m3376 -88 c35 -13
80 -55 100 -94 19 -36 21 -122 3 -155 -37 -73 -101 -113 -177 -112 -63 0 -103
21 -146 75 -56 68 -46 190 19 249 51 46 137 62 201 37z m-679 -159 c125 -76
73 -270 -73 -270 -78 0 -145 67 -145 145 0 78 67 145 145 145 22 0 54 -9 73
-20z m1428 -366 c68 -42 107 -117 102 -196 -11 -160 -173 -253 -315 -183 -130
65 -162 230 -65 337 76 85 183 101 278 42z m-3278 -19 c79 -34 122 -101 122
-192 0 -113 -78 -194 -193 -201 -78 -4 -138 24 -182 87 -27 38 -30 51 -30 116
0 65 3 78 30 116 56 80 163 111 253 74z m1333 -33 c34 -17 65 -44 84 -71 27
-39 30 -50 30 -125 0 -73 -3 -87 -27 -124 -15 -22 -48 -53 -74 -68 -153 -90
-338 14 -338 191 0 171 173 276 325 197z m629 -528 c80 -48 84 -176 6 -223
-61 -38 -118 -32 -167 18 -35 35 -39 44 -39 91 0 47 4 56 39 91 34 34 44 39
86 39 26 0 59 -7 75 -16z m-1153 -74 c189 -93 237 -343 96 -500 -64 -71 -129
-102 -223 -108 -131 -7 -241 54 -305 169 -27 49 -30 62 -30 149 0 79 4 103 23
142 82 166 272 230 439 148z m-1377 -188 c56 -57 46 -140 -23 -182 -40 -25
-73 -25 -114 0 -40 24 -55 53 -55 101 1 68 45 108 120 109 35 0 49 -6 72 -28z
m-1100 -72 c140 -72 162 -254 42 -362 -106 -96 -266 -67 -336 61 -102 189 103
399 294 301z m5284 -60 c55 -27 79 -63 84 -124 3 -41 -1 -57 -20 -85 -37 -55
-71 -75 -128 -75 -57 0 -91 20 -128 75 -19 28 -23 44 -20 85 5 61 33 101 86
126 49 23 77 22 126 -2z m-3578 -370 c99 -48 163 -165 149 -270 -10 -74 -60
-149 -123 -187 -111 -66 -229 -51 -317 40 -56 58 -75 105 -75 188 1 142 112
249 259 249 45 0 78 -6 107 -20z m-1023 -120 c98 -49 152 -142 151 -255 -1
-83 -20 -130 -75 -190 -97 -105 -251 -121 -370 -37 -189 134 -142 431 81 503
49 16 162 5 213 -21z m1743 -269 c142 -65 142 -277 0 -342 -126 -57 -266 31
-266 168 0 145 136 233 266 174z m2346 -131 c78 -22 130 -90 130 -170 0 -78
-49 -144 -127 -170 -104 -34 -224 57 -225 169 0 72 52 143 125 169 39 14 53
14 97 2z m-4972 -188 c45 -25 74 -81 66 -127 -19 -101 -139 -143 -212 -74 -54
50 -52 129 4 181 46 43 87 49 142 20z m3186 -535 c64 -58 55 -152 -19 -197
-87 -54 -198 20 -184 123 9 65 58 105 130 106 29 1 45 -6 73 -32z m-3866 -19
c64 -32 92 -85 87 -161 -4 -64 -23 -98 -78 -135 -45 -32 -138 -28 -187 7 -103
73 -90 235 23 291 52 26 100 25 155 -2z m827 -263 c54 -32 83 -86 83 -155 0
-84 -48 -147 -131 -172 -126 -37 -254 92 -219 221 31 115 162 167 267 106z
m4262 -122 c68 -51 89 -131 53 -203 -52 -105 -207 -108 -267 -5 -49 83 -18
181 70 221 39 18 110 12 144 -13z"/>
</g>
</svg>
